<mxfile host="app.diagrams.net" modified="2022-04-18T08:37:30.045Z" agent="5.0 (Macintosh; Intel Mac OS X 10_15_7) AppleWebKit/537.36 (KHTML, like Gecko) Chrome/100.0.4896.75 Safari/537.36" etag="J5FQ1oENC3Gm0GV5a7k8" version="17.4.5" type="github">
  <diagram id="C5RBs43oDa-KdzZeNtuy" name="Page-1">
    <mxGraphModel dx="1186" dy="621" grid="1" gridSize="10" guides="1" tooltips="1" connect="1" arrows="1" fold="1" page="1" pageScale="1" pageWidth="827" pageHeight="1169" math="0" shadow="0">
      <root>
        <mxCell id="WIyWlLk6GJQsqaUBKTNV-0" />
        <mxCell id="WIyWlLk6GJQsqaUBKTNV-1" parent="WIyWlLk6GJQsqaUBKTNV-0" />
        <mxCell id="b0Hh9x_Se0h832OlliAm-32" value="" style="whiteSpace=wrap;html=1;aspect=fixed;fontSize=24;" parent="WIyWlLk6GJQsqaUBKTNV-1" vertex="1">
          <mxGeometry x="498" y="340" width="290" height="290" as="geometry" />
        </mxCell>
        <mxCell id="b0Hh9x_Se0h832OlliAm-19" value="&lt;font style=&quot;font-size: 18px&quot;&gt;slot 1&lt;/font&gt;" style="rounded=0;whiteSpace=wrap;html=1;" parent="WIyWlLk6GJQsqaUBKTNV-1" vertex="1">
          <mxGeometry x="521" y="380" width="100" height="210" as="geometry" />
        </mxCell>
        <mxCell id="b0Hh9x_Se0h832OlliAm-1" value="&lt;p style=&quot;margin: 0px ; margin-top: 4px ; text-align: center&quot;&gt;&lt;b&gt;StockEntity&lt;/b&gt;&lt;/p&gt;&lt;hr size=&quot;1&quot;&gt;&amp;nbsp;- stockId: Long&amp;nbsp;&lt;br&gt;&amp;nbsp;- pid: Long&lt;br&gt;&lt;p style=&quot;margin: 0px ; margin-left: 4px&quot;&gt;- stock: Long&lt;/p&gt;&lt;p style=&quot;margin: 0px ; margin-left: 4px&quot;&gt;- date: Date&lt;/p&gt;&lt;p style=&quot;margin: 0px ; margin-left: 4px&quot;&gt;- groupIds: List&amp;lt;StockGroupEntity&amp;gt;&lt;br&gt;- createTime: Date&lt;br&gt;- updateTime: Date&lt;br&gt;- version: Integer&lt;/p&gt;&lt;hr size=&quot;1&quot;&gt;&lt;p style=&quot;margin: 0px ; margin-left: 4px&quot;&gt;+ addStock(date, count): Long&lt;/p&gt;&lt;p style=&quot;margin: 0px ; margin-left: 4px&quot;&gt;+ getStock(date): Long&lt;br&gt;&lt;/p&gt;&lt;p style=&quot;margin: 0px 0px 0px 4px&quot;&gt;+ addStockToGroup(groupId, date, count): Long&lt;/p&gt;&lt;p style=&quot;margin: 0px 0px 0px 4px&quot;&gt;+ getStockFromGroup(groupId, date): Long&lt;br&gt;&lt;/p&gt;&lt;p style=&quot;margin: 0px 0px 0px 4px&quot;&gt;+ addGroup(groupId)&lt;/p&gt;" style="verticalAlign=top;align=left;overflow=fill;fontSize=12;fontFamily=Helvetica;html=1;" parent="WIyWlLk6GJQsqaUBKTNV-1" vertex="1">
          <mxGeometry x="41" y="800" width="307" height="240" as="geometry" />
        </mxCell>
        <mxCell id="b0Hh9x_Se0h832OlliAm-2" value="&lt;p style=&quot;margin: 0px ; margin-top: 4px ; text-align: center&quot;&gt;&lt;b&gt;StockGroupEntity&lt;/b&gt;&lt;/p&gt;&lt;hr size=&quot;1&quot;&gt;&amp;nbsp;- id: Long&lt;br&gt;&amp;nbsp;- groupId: Long&lt;br&gt;&lt;p style=&quot;margin: 0px ; margin-left: 4px&quot;&gt;- stock: Long&lt;/p&gt;&lt;p style=&quot;margin: 0px ; margin-left: 4px&quot;&gt;- date: Date&lt;/p&gt;&lt;p style=&quot;margin: 0px ; margin-left: 4px&quot;&gt;- memberIds: List&amp;lt;StockEntity&amp;gt;&lt;br&gt;- createTime: Date&lt;br&gt;- updateTime: Date&lt;br&gt;- version: Integer&lt;br&gt;&lt;/p&gt;&lt;hr size=&quot;1&quot;&gt;&lt;p style=&quot;margin: 0px ; margin-left: 4px&quot;&gt;+ addStock(date, count): Long&lt;/p&gt;&lt;p style=&quot;margin: 0px ; margin-left: 4px&quot;&gt;+ getStock(date): Long&lt;br&gt;&lt;/p&gt;&lt;p style=&quot;margin: 0px 0px 0px 4px&quot;&gt;+ addMember(stockId): Long&lt;/p&gt;" style="verticalAlign=top;align=left;overflow=fill;fontSize=12;fontFamily=Helvetica;html=1;" parent="WIyWlLk6GJQsqaUBKTNV-1" vertex="1">
          <mxGeometry x="371" y="800" width="219" height="210" as="geometry" />
        </mxCell>
        <mxCell id="b0Hh9x_Se0h832OlliAm-3" value="&lt;div style=&quot;box-sizing: border-box ; width: 100% ; background: #e4e4e4 ; padding: 2px&quot;&gt;stock_table&lt;/div&gt;&lt;table style=&quot;width: 100% ; font-size: 1em&quot; cellpadding=&quot;2&quot; cellspacing=&quot;0&quot;&gt;&lt;tbody&gt;&lt;tr&gt;&lt;td&gt;PK&lt;/td&gt;&lt;td&gt;id&lt;/td&gt;&lt;/tr&gt;&lt;tr&gt;&lt;td&gt;field&lt;/td&gt;&lt;td&gt;&lt;br&gt;stock_id&lt;br&gt;pid&lt;br&gt;date&lt;br&gt;stock&lt;br&gt;group_ids&lt;br&gt;create_time&lt;br&gt;update_time&lt;br&gt;version&lt;/td&gt;&lt;/tr&gt;&lt;/tbody&gt;&lt;/table&gt;" style="verticalAlign=top;align=left;overflow=fill;html=1;" parent="WIyWlLk6GJQsqaUBKTNV-1" vertex="1">
          <mxGeometry x="78" y="1074" width="190" height="180" as="geometry" />
        </mxCell>
        <mxCell id="b0Hh9x_Se0h832OlliAm-5" value="&lt;div style=&quot;box-sizing: border-box ; width: 100% ; background: #e4e4e4 ; padding: 2px&quot;&gt;stock_group_table&lt;/div&gt;&lt;table style=&quot;width: 100% ; font-size: 1em&quot; cellpadding=&quot;2&quot; cellspacing=&quot;0&quot;&gt;&lt;tbody&gt;&lt;tr&gt;&lt;td&gt;PK&lt;/td&gt;&lt;td&gt;id&lt;/td&gt;&lt;/tr&gt;&lt;tr&gt;&lt;td&gt;field&lt;/td&gt;&lt;td&gt;&lt;br&gt;group_id&lt;br&gt;date&lt;br&gt;stock&lt;br&gt;member_ids&lt;br&gt;create_time&lt;br&gt;update_time&lt;br&gt;version&lt;/td&gt;&lt;/tr&gt;&lt;/tbody&gt;&lt;/table&gt;" style="verticalAlign=top;align=left;overflow=fill;html=1;" parent="WIyWlLk6GJQsqaUBKTNV-1" vertex="1">
          <mxGeometry x="387" y="1074" width="187" height="170" as="geometry" />
        </mxCell>
        <mxCell id="b0Hh9x_Se0h832OlliAm-37" style="edgeStyle=orthogonalEdgeStyle;rounded=0;orthogonalLoop=1;jettySize=auto;html=1;exitX=0.5;exitY=1;exitDx=0;exitDy=0;fontSize=18;" parent="WIyWlLk6GJQsqaUBKTNV-1" source="b0Hh9x_Se0h832OlliAm-6" target="b0Hh9x_Se0h832OlliAm-7" edge="1">
          <mxGeometry relative="1" as="geometry" />
        </mxCell>
        <mxCell id="b0Hh9x_Se0h832OlliAm-6" value="&lt;font style=&quot;font-size: 18px&quot;&gt;开始&lt;/font&gt;" style="ellipse;whiteSpace=wrap;html=1;" parent="WIyWlLk6GJQsqaUBKTNV-1" vertex="1">
          <mxGeometry x="156" y="70" width="120" height="80" as="geometry" />
        </mxCell>
        <mxCell id="b0Hh9x_Se0h832OlliAm-36" style="edgeStyle=orthogonalEdgeStyle;rounded=0;orthogonalLoop=1;jettySize=auto;html=1;exitX=0.5;exitY=1;exitDx=0;exitDy=0;entryX=0.5;entryY=0;entryDx=0;entryDy=0;fontSize=18;" parent="WIyWlLk6GJQsqaUBKTNV-1" source="b0Hh9x_Se0h832OlliAm-7" target="b0Hh9x_Se0h832OlliAm-8" edge="1">
          <mxGeometry relative="1" as="geometry" />
        </mxCell>
        <mxCell id="b0Hh9x_Se0h832OlliAm-42" value="date_stock_id" style="edgeStyle=orthogonalEdgeStyle;rounded=0;orthogonalLoop=1;jettySize=auto;html=1;exitX=1;exitY=0.5;exitDx=0;exitDy=0;fontSize=18;" parent="WIyWlLk6GJQsqaUBKTNV-1" source="b0Hh9x_Se0h832OlliAm-7" target="b0Hh9x_Se0h832OlliAm-41" edge="1">
          <mxGeometry relative="1" as="geometry" />
        </mxCell>
        <mxCell id="b0Hh9x_Se0h832OlliAm-7" value="&lt;font style=&quot;font-size: 18px&quot;&gt;库存校验&lt;/font&gt;" style="rounded=1;whiteSpace=wrap;html=1;" parent="WIyWlLk6GJQsqaUBKTNV-1" vertex="1">
          <mxGeometry x="156" y="190" width="120" height="60" as="geometry" />
        </mxCell>
        <mxCell id="b0Hh9x_Se0h832OlliAm-38" style="edgeStyle=orthogonalEdgeStyle;rounded=0;orthogonalLoop=1;jettySize=auto;html=1;exitX=0.5;exitY=1;exitDx=0;exitDy=0;entryX=0.5;entryY=0;entryDx=0;entryDy=0;fontSize=18;" parent="WIyWlLk6GJQsqaUBKTNV-1" source="b0Hh9x_Se0h832OlliAm-8" target="b0Hh9x_Se0h832OlliAm-9" edge="1">
          <mxGeometry relative="1" as="geometry" />
        </mxCell>
        <mxCell id="b0Hh9x_Se0h832OlliAm-8" value="&lt;font style=&quot;font-size: 18px&quot;&gt;开启事务&lt;/font&gt;" style="rounded=1;whiteSpace=wrap;html=1;fillColor=#B9E0A5;" parent="WIyWlLk6GJQsqaUBKTNV-1" vertex="1">
          <mxGeometry x="156" y="300" width="120" height="60" as="geometry" />
        </mxCell>
        <mxCell id="b0Hh9x_Se0h832OlliAm-33" value="&lt;span style=&quot;font-size: 18px&quot;&gt;hash(date_stock_id)&lt;/span&gt;" style="edgeStyle=orthogonalEdgeStyle;rounded=0;orthogonalLoop=1;jettySize=auto;html=1;exitX=1;exitY=0.5;exitDx=0;exitDy=0;entryX=0;entryY=0.5;entryDx=0;entryDy=0;fontSize=24;" parent="WIyWlLk6GJQsqaUBKTNV-1" source="b0Hh9x_Se0h832OlliAm-9" target="b0Hh9x_Se0h832OlliAm-32" edge="1">
          <mxGeometry x="-0.0667" relative="1" as="geometry">
            <mxPoint as="offset" />
          </mxGeometry>
        </mxCell>
        <mxCell id="b0Hh9x_Se0h832OlliAm-39" style="edgeStyle=orthogonalEdgeStyle;rounded=0;orthogonalLoop=1;jettySize=auto;html=1;exitX=0.5;exitY=1;exitDx=0;exitDy=0;fontSize=18;" parent="WIyWlLk6GJQsqaUBKTNV-1" source="b0Hh9x_Se0h832OlliAm-9" target="b0Hh9x_Se0h832OlliAm-10" edge="1">
          <mxGeometry relative="1" as="geometry" />
        </mxCell>
        <mxCell id="b0Hh9x_Se0h832OlliAm-9" value="&lt;font style=&quot;font-size: 18px&quot;&gt;扣减库存&lt;/font&gt;" style="rounded=1;whiteSpace=wrap;html=1;" parent="WIyWlLk6GJQsqaUBKTNV-1" vertex="1">
          <mxGeometry x="156" y="400" width="120" height="60" as="geometry" />
        </mxCell>
        <mxCell id="b0Hh9x_Se0h832OlliAm-34" value="&lt;span style=&quot;font-size: 18px&quot;&gt;hash(date_stock_id)&lt;/span&gt;" style="edgeStyle=orthogonalEdgeStyle;rounded=0;orthogonalLoop=1;jettySize=auto;html=1;entryX=0;entryY=0.5;entryDx=0;entryDy=0;fontSize=24;" parent="WIyWlLk6GJQsqaUBKTNV-1" source="b0Hh9x_Se0h832OlliAm-10" target="b0Hh9x_Se0h832OlliAm-32" edge="1">
          <mxGeometry relative="1" as="geometry" />
        </mxCell>
        <mxCell id="b0Hh9x_Se0h832OlliAm-40" style="edgeStyle=orthogonalEdgeStyle;rounded=0;orthogonalLoop=1;jettySize=auto;html=1;exitX=0.5;exitY=1;exitDx=0;exitDy=0;entryX=0.5;entryY=0;entryDx=0;entryDy=0;fontSize=18;" parent="WIyWlLk6GJQsqaUBKTNV-1" source="b0Hh9x_Se0h832OlliAm-10" target="b0Hh9x_Se0h832OlliAm-11" edge="1">
          <mxGeometry relative="1" as="geometry" />
        </mxCell>
        <mxCell id="b0Hh9x_Se0h832OlliAm-10" value="&lt;font style=&quot;font-size: 18px&quot;&gt;扣减流水&lt;/font&gt;" style="rounded=1;whiteSpace=wrap;html=1;" parent="WIyWlLk6GJQsqaUBKTNV-1" vertex="1">
          <mxGeometry x="156" y="500" width="120" height="60" as="geometry" />
        </mxCell>
        <mxCell id="b0Hh9x_Se0h832OlliAm-11" value="&lt;font style=&quot;font-size: 18px&quot;&gt;提交事务&lt;/font&gt;" style="rounded=1;whiteSpace=wrap;html=1;fillColor=#B9E0A5;" parent="WIyWlLk6GJQsqaUBKTNV-1" vertex="1">
          <mxGeometry x="156" y="590" width="120" height="60" as="geometry" />
        </mxCell>
        <mxCell id="b0Hh9x_Se0h832OlliAm-12" value="&lt;font style=&quot;font-size: 18px&quot;&gt;master&lt;/font&gt;" style="shape=cylinder3;whiteSpace=wrap;html=1;boundedLbl=1;backgroundOutline=1;size=15;" parent="WIyWlLk6GJQsqaUBKTNV-1" vertex="1">
          <mxGeometry x="541" y="390" width="60" height="80" as="geometry" />
        </mxCell>
        <mxCell id="b0Hh9x_Se0h832OlliAm-13" value="&lt;font style=&quot;font-size: 18px&quot;&gt;slave&lt;/font&gt;" style="shape=cylinder3;whiteSpace=wrap;html=1;boundedLbl=1;backgroundOutline=1;size=15;" parent="WIyWlLk6GJQsqaUBKTNV-1" vertex="1">
          <mxGeometry x="541" y="500" width="60" height="80" as="geometry" />
        </mxCell>
        <mxCell id="b0Hh9x_Se0h832OlliAm-27" value="&lt;font style=&quot;font-size: 18px&quot;&gt;slot n&lt;/font&gt;" style="rounded=0;whiteSpace=wrap;html=1;" parent="WIyWlLk6GJQsqaUBKTNV-1" vertex="1">
          <mxGeometry x="671" y="380" width="100" height="210" as="geometry" />
        </mxCell>
        <mxCell id="b0Hh9x_Se0h832OlliAm-28" value="&lt;font style=&quot;font-size: 18px&quot;&gt;master&lt;/font&gt;" style="shape=cylinder3;whiteSpace=wrap;html=1;boundedLbl=1;backgroundOutline=1;size=15;" parent="WIyWlLk6GJQsqaUBKTNV-1" vertex="1">
          <mxGeometry x="691" y="390" width="60" height="80" as="geometry" />
        </mxCell>
        <mxCell id="b0Hh9x_Se0h832OlliAm-29" value="&lt;font style=&quot;font-size: 18px&quot;&gt;slave&lt;/font&gt;" style="shape=cylinder3;whiteSpace=wrap;html=1;boundedLbl=1;backgroundOutline=1;size=15;" parent="WIyWlLk6GJQsqaUBKTNV-1" vertex="1">
          <mxGeometry x="691" y="500" width="60" height="80" as="geometry" />
        </mxCell>
        <mxCell id="b0Hh9x_Se0h832OlliAm-30" value="&lt;font style=&quot;font-size: 18px&quot;&gt;&lt;b&gt;...&lt;/b&gt;&lt;/font&gt;" style="text;html=1;strokeColor=none;fillColor=none;align=center;verticalAlign=middle;whiteSpace=wrap;rounded=0;" parent="WIyWlLk6GJQsqaUBKTNV-1" vertex="1">
          <mxGeometry x="611" y="480" width="60" height="30" as="geometry" />
        </mxCell>
        <mxCell id="b0Hh9x_Se0h832OlliAm-41" value="redis-cluster" style="rounded=1;whiteSpace=wrap;html=1;fontSize=18;" parent="WIyWlLk6GJQsqaUBKTNV-1" vertex="1">
          <mxGeometry x="533.5" y="175" width="183.5" height="90" as="geometry" />
        </mxCell>
        <mxCell id="Bkc4hbjsmZq6F6q7wlCZ-0" value="&lt;font style=&quot;font-size: 18px&quot;&gt;1，库存扣减使用数据库的乐观锁&lt;br&gt;&lt;/font&gt;&lt;div&gt;&lt;span&gt;&lt;font size=&quot;3&quot;&gt;2，扣减流水与订单明细关联，用于回补库存和幂等校验&lt;br&gt;3，库存按照date和stock_id进行分表&lt;/font&gt;&lt;/span&gt;&lt;/div&gt;" style="text;html=1;strokeColor=none;fillColor=none;align=left;verticalAlign=middle;whiteSpace=wrap;rounded=0;" vertex="1" parent="WIyWlLk6GJQsqaUBKTNV-1">
          <mxGeometry x="170" y="690" width="490" height="80" as="geometry" />
        </mxCell>
        <mxCell id="Bkc4hbjsmZq6F6q7wlCZ-1" value="mysql cluster" style="text;html=1;strokeColor=none;fillColor=none;align=center;verticalAlign=middle;whiteSpace=wrap;rounded=0;fontSize=18;" vertex="1" parent="WIyWlLk6GJQsqaUBKTNV-1">
          <mxGeometry x="580" y="590" width="137" height="30" as="geometry" />
        </mxCell>
        <mxCell id="Bkc4hbjsmZq6F6q7wlCZ-3" value="&lt;p style=&quot;margin: 0px ; margin-top: 4px ; text-align: center&quot;&gt;&lt;b&gt;StockLogEntity&lt;/b&gt;&lt;/p&gt;&lt;hr size=&quot;1&quot;&gt;&amp;nbsp;- id: Long&lt;br&gt;&amp;nbsp;- stockId: Long&lt;br&gt;&lt;p style=&quot;margin: 0px ; margin-left: 4px&quot;&gt;- amount: Long&lt;/p&gt;&lt;p style=&quot;margin: 0px ; margin-left: 4px&quot;&gt;- orderDetailId: Long&lt;br&gt;&lt;/p&gt;&lt;p style=&quot;margin: 0px ; margin-left: 4px&quot;&gt;- date: Date&lt;/p&gt;&lt;p style=&quot;margin: 0px ; margin-left: 4px&quot;&gt;- stockType: {Stock,StockGroup}&lt;br&gt;- createTime: Date&lt;br&gt;- updateTime: Date&lt;br&gt;&lt;/p&gt;&lt;hr size=&quot;1&quot;&gt;&lt;p style=&quot;margin: 0px ; margin-left: 4px&quot;&gt;+ addStockLog(date, orderDetailId, stockId, stockType, amount): int&lt;/p&gt;&lt;p style=&quot;margin: 0px ; margin-left: 4px&quot;&gt;+ getStockLog(orderDetailId): StockLogEntity&lt;/p&gt;" style="verticalAlign=top;align=left;overflow=fill;fontSize=12;fontFamily=Helvetica;html=1;" vertex="1" parent="WIyWlLk6GJQsqaUBKTNV-1">
          <mxGeometry x="621" y="800" width="380" height="200" as="geometry" />
        </mxCell>
        <mxCell id="Bkc4hbjsmZq6F6q7wlCZ-4" value="&lt;div style=&quot;box-sizing: border-box ; width: 100% ; background: #e4e4e4 ; padding: 2px&quot;&gt;stock_log_table&lt;/div&gt;&lt;table style=&quot;width: 100% ; font-size: 1em&quot; cellpadding=&quot;2&quot; cellspacing=&quot;0&quot;&gt;&lt;tbody&gt;&lt;tr&gt;&lt;td&gt;PK&lt;/td&gt;&lt;td&gt;id&lt;/td&gt;&lt;/tr&gt;&lt;tr&gt;&lt;td&gt;field&lt;/td&gt;&lt;td&gt;&lt;br&gt;date&lt;br&gt;order_detail_id&lt;br&gt;stock_id&lt;br&gt;stock_type&lt;br&gt;amount&lt;br&gt;create_time&lt;br&gt;update_time&lt;br&gt;&lt;/td&gt;&lt;/tr&gt;&lt;/tbody&gt;&lt;/table&gt;" style="verticalAlign=top;align=left;overflow=fill;html=1;" vertex="1" parent="WIyWlLk6GJQsqaUBKTNV-1">
          <mxGeometry x="646" y="1074" width="184" height="166" as="geometry" />
        </mxCell>
      </root>
    </mxGraphModel>
  </diagram>
</mxfile>
